PathFileType	3	(X/Y/Z)	F:\ViconData\AntennenMessung\Messung1\Session1\ID16.trc
DataRate	CameraRate	NumFrames	NumMarkers	Units	OrigDataRate	OrigDataStartFrame	OrigNumFrames
120.0	120.0	4	70	mm	120.0	788	900	
Frame#	Time	Ashort			Along			Atop			A4			Bshort			Blong			Btop			B4			Cshort			Clong			Ctop			C4			Dshort			Dlong			Dtop			D4			Eshort			Elong			Etop			E4			Fshort			Flong			Ftop			F4			Gshort			Glong			Gtop			G4			Hshort			Hlong			Htop			H4			I1			I2			I3			I4			I5			WandAshort			WandAlong			WandAtop			WandA4			WandA15			WandBshort			WandB4			WandB5			WandBtop			WandBlong			WandCshort			WandClong			WandCtop			WandC4			WandC5			Acenter			Aantenna			Bcenter			Bantenna			Ccenter			Cantenna			Dcenter			Dantenna			Ecenter			Eantenna			Fcenter			Fantenna			Gcenter			Gantenna			Hcenter			Hantenna			Icenter			Iantenna			
		X1	Y1	Z1	X2	Y2	Z2	X3	Y3	Z3	X4	Y4	Z4	X5	Y5	Z5	X6	Y6	Z6	X7	Y7	Z7	X8	Y8	Z8	X9	Y9	Z9	X10	Y10	Z10	X11	Y11	Z11	X12	Y12	Z12	X13	Y13	Z13	X14	Y14	Z14	X15	Y15	Z15	X16	Y16	Z16	X17	Y17	Z17	X18	Y18	Z18	X19	Y19	Z19	X20	Y20	Z20	X21	Y21	Z21	X22	Y22	Z22	X23	Y23	Z23	X24	Y24	Z24	X25	Y25	Z25	X26	Y26	Z26	X27	Y27	Z27	X28	Y28	Z28	X29	Y29	Z29	X30	Y30	Z30	X31	Y31	Z31	X32	Y32	Z32	X33	Y33	Z33	X34	Y34	Z34	X35	Y35	Z35	X36	Y36	Z36	X37	Y37	Z37	X38	Y38	Z38	X39	Y39	Z39	X40	Y40	Z40	X41	Y41	Z41	X42	Y42	Z42	X43	Y43	Z43	X44	Y44	Z44	X45	Y45	Z45	X46	Y46	Z46	X47	Y47	Z47	X48	Y48	Z48	X49	Y49	Z49	X50	Y50	Z50	X51	Y51	Z51	X52	Y52	Z52	X53	Y53	Z53	X54	Y54	Z54	X55	Y55	Z55	X56	Y56	Z56	X57	Y57	Z57	X58	Y58	Z58	X59	Y59	Z59	X60	Y60	Z60	X61	Y61	Z61	X62	Y62	Z62	X63	Y63	Z63	X64	Y64	Z64	X65	Y65	Z65	X66	Y66	Z66	X67	Y67	Z67	X68	Y68	Z68	X69	Y69	Z69	X70	Y70	Z70	
788	6.5583333	-1038.2007	214.54964	-1644.1619	-1109.3726	204.18903	-1599.3314	-1063.7307	173.06535	-1626.0944	-1054.1371	262.25095	-1634.9319	-1352.9369	234.94868	1003.7319	-1281.3395	227.1839	1052.4681	-1322.8832	193.76572	1020.9188	-1284.5281	287.79935	1052.8452	813.8902	187.6526	1209.6002	892.10498	178.52924	1179.2155	844.31085	145.6152	1198.2192	860.74811	292.86136	1167.9828	1115.762	209.94614	-1401.743	1056.2327	194.03479	-1460.1837	1095.0963	162.55692	-1423.8624	1069.7656	238.7486	-1425.7966	-1204.5591	1685.9506	-1563.1934	-1129.1145	1688.3396	-1606.2285	-1173.1562	1724.4232	-1581.9314	-1134.0494	1581.0071	-1603.8441	-1239.6234	1699.1342	1119.4729	-1309.3258	1698.7285	1071.8905	-1270.442	1736.2994	1096.8715	-1245.6453	1592.7437	1110.634	988.86597	1664.2734	1162.2098	957.57184	1700.3469	1183.8761	922.06482	1662.264	1214.8993	939.81702	1659.4357	1159.8812	999.0307	1668.467	-1579.4087	1058.7427	1669.9922	-1518.6268	1024.9629	1708.0378	-1551.0928	1059.2424	1672.1573	-1585.4287	-147.04349	1161.2855	-186.63599	-232.24388	1160.702	-187.84822	-185.30193	1198.3748	-188.5472	-184.04343	1159.4568	-219.28503	-185.49384	1163.7002	-139.92625																																														-1068.4905	210.14029	-1625.0825	-1073.4548	248.80865	-1624.0272	-1321.6041	231.55061	1025.0599	-1320.2927	270.29654	1029.3064	848.02045	183.67146	1196.3413	851.7995	222.44077	1194.4282	1088.7145	202.71672	-1428.2959	1082.6299	241.00653	-1432.5229	-1171.9066	1686.9844	-1581.819	-1170.6056	1648.0063	-1581.7019	-1271.0215	1698.9514	1098.0388	-1271.6265	1659.9751	1099.2571	952.91168	1705.7189	1187.1025	972.92737	1733.9155	1169.0659	1026.4099	1669.1664	-1551.5387	1027.8605	1630.1958	-1551.986	-185.06558	1161.025	-187.17696	-184.81895	1122.0521	-185.74718
789	6.5666667	-1038.2164	214.54106	-1644.1381	-1109.4	204.12741	-1599.2684	-1063.6086	172.84099	-1626.0399	-1054.1608	262.23181	-1634.9205	-1352.923	235.09248	1003.7638	-1281.3634	227.15198	1052.48	-1322.9159	193.72366	1021.0007	-1284.5709	287.89871	1052.7822	813.90735	187.6772	1209.5314	892.60248	179.25311	1178.7758	844.36121	145.67667	1198.2582	860.44226	292.97412	1167.3483	1115.7629	209.9398	-1401.7472	1056.231	194.04449	-1460.2017	1095.02	162.46126	-1423.848	1069.7512	238.77475	-1425.7782	-1204.5513	1685.9447	-1563.1893	-1129.1251	1688.3529	-1606.2343	-1173.1488	1724.4465	-1581.9526	-1134.0415	1581.0107	-1603.8723	-1239.595	1699.0851	1119.4463	-1309.1503	1698.4254	1071.7887	-1270.4309	1736.2888	1096.8602	-1244.9762	1593.6099	1106.0469	988.83838	1664.246	1162.1951	957.37994	1700.3749	1183.7191	922.52325	1662.1195	1214.9751	939.77533	1659.403	1159.9095	999.04388	1668.4899	-1579.4237	1058.8583	1670.1562	-1518.6157	1024.9631	1708.0292	-1551.0969	1059.2473	1672.1616	-1585.4319	-147.05644	1161.2897	-186.6192	-232.2468	1160.7083	-187.85501	-185.35806	1198.4567	-188.54498	-184.13928	1159.2023	-218.98267	-185.4832	1163.7006	-139.94215																																														-1068.4552	210.11732	-1625.0774	-1073.4821	248.77913	-1624.0792	-1321.5278	231.60876	1025.1368	-1320.1082	270.35269	1029.3667	847.71228	184.05847	1196.3197	851.10016	222.8616	1194.3601	1088.6821	202.70912	-1428.3376	1082.652	241.00259	-1432.6095	-1171.8839	1686.9877	-1581.8322	-1170.5679	1648.01	-1581.7069	-1270.8685	1698.7885	1098.0182	-1271.3236	1659.8097	1099.2217	952.96411	1705.4462	1186.7404	972.7478	1733.6045	1168.3905	1026.4827	1669.2542	-1551.5289	1028.0098	1630.2865	-1551.9633	-185.12253	1161.0298	-187.1714	-184.87729	1122.0569	-185.74107
790	6.575	-1038.1993	214.58662	-1644.1851	-1109.3982	204.12288	-1599.2751	-1063.6152	172.91011	-1626.0197	-1054.1591	262.24374	-1634.9307	-1352.8298	235.16115	1003.708	-1281.4081	227.25842	1052.4429	-1322.8474	193.74414	1021.0355	-1284.507	287.93118	1052.7157	813.91217	187.68404	1209.5386	892.10681	178.44917	1179.3286	844.25208	145.64505	1198.208	860.70569	293.27155	1166.9613	1115.7124	209.66492	-1401.597	1056.2163	194.05283	-1460.1959	1095.0721	162.52583	-1423.8728	1069.7982	238.80048	-1425.8016	-1204.5481	1685.9592	-1563.1799	-1129.1149	1688.3206	-1606.0513	-1173.1437	1724.4169	-1581.9341	-1134.0657	1580.9939	-1603.8311	-1239.6036	1699.0995	1119.4573	-1309.1688	1698.4377	1071.7957	-1270.4481	1736.3019	1096.869	-1245.6705	1592.8458	1110.6479	988.89148	1664.2872	1162.2329	957.40637	1700.4073	1183.7693	922.71448	1662.0758	1215.0007	939.80981	1659.4139	1159.9081	999.02991	1668.4778	-1579.4314	1058.8673	1670.1617	-1518.6124	1024.9564	1708.0361	-1551.0901	1059.2467	1672.1582	-1585.4379	-147.06773	1161.2891	-186.6338	-232.2292	1160.6943	-187.85384	-185.29353	1198.3619	-188.53258	-184.14165	1159.1873	-218.98412	-185.45757	1163.6671	-139.94955																																														-1068.4916	210.1347	-1625.0775	-1073.5558	248.79213	-1624.0992	-1321.4404	231.68794	1025.1266	-1320.0038	270.43692	1029.3044	848.02655	183.65508	1196.3586	851.87604	222.41879	1194.4727	1088.7621	202.59299	-1428.1409	1082.728	240.90663	-1432.2222	-1171.8687	1686.9821	-1581.7528	-1170.5414	1648.0051	-1581.5641	-1270.8839	1698.8019	1098.0259	-1271.337	1659.8231	1099.2286	953.0672	1705.3854	1186.7372	972.80786	1733.5529	1168.3553	1026.4879	1669.2504	-1551.5229	1028.0266	1630.2832	-1551.9579	-185.05219	1161.0238	-187.17798	-184.80026	1122.0503	-185.76405
791	6.5833333	-1038.2118	214.51349	-1644.1377	-1109.3429	204.15585	-1599.3264	-1063.6433	172.85635	-1626.0219	-1054.1721	262.23355	-1634.9056	-1352.9446	234.95381	1003.59	-1281.3221	227.20189	1052.4617	-1322.8571	193.74153	1020.9719	-1284.6748	287.87811	1052.8209	813.87738	187.66454	1209.4648	892.13611	178.54961	1179.3185	844.29004	145.57716	1198.3026	860.65387	292.82117	1167.8608	1115.6844	209.63713	-1401.5724	1056.1715	194.0562	-1460.1772	1095.0237	162.42537	-1423.8724	1069.8973	239.0229	-1425.7664	-1204.5483	1685.9517	-1563.1974	-1129.1143	1688.3036	-1606.026	-1173.1454	1724.4303	-1581.9454	-1134.0554	1581.0024	-1603.8402	-1239.6205	1699.1211	1119.4641	-1309.1249	1698.4122	1071.7834	-1270.4374	1736.2845	1096.8669	-1245.6562	1592.7871	1110.6365	988.87128	1664.286	1162.22	957.45038	1700.3954	1183.8073	922.6189	1662.0646	1214.9382	939.7558	1659.3911	1159.9452	999.03345	1668.4683	-1579.3989	1058.8593	1670.1476	-1518.6123	1024.9656	1708.022	-1551.0953	1059.2479	1672.1594	-1585.4314	-147.05431	1161.3016	-186.6451	-232.22191	1160.6899	-187.8642	-185.35582	1198.4421	-188.53358	-184.13437	1159.2009	-218.98116	-185.50313	1163.7091	-139.92181																																														-1068.4711	210.10733	-1625.0748	-1073.4819	248.77159	-1624.092	-1321.5304	231.55374	1025.0254	-1320.1708	270.30798	1029.1799	847.97028	183.69368	1196.3317	851.71344	222.46182	1194.327	1088.7098	202.57498	-1428.1353	1082.6844	240.89137	-1432.2034	-1171.8678	1686.9706	-1581.7521	-1170.5385	1647.9937	-1581.551	-1270.8566	1698.8025	1098.0356	-1271.2928	1659.8239	1099.251	953.09283	1705.403	1186.8009	972.90479	1733.5785	1168.5083	1026.4784	1669.2385	-1551.5129	1027.9985	1630.2705	-1551.9326	-185.1064	1161.0283	-187.18977	-184.84656	1122.0542	-185.78992
